<svg xmlns="http://www.w3.org/2000/svg" viewBox="0 0 96 96" fill="none" class="css-kjos95"><g clip-path="url(#coin-b96_svg__clip0)"><path d="M19 79.2a7.8 7.8 0 100-15.6 7.8 7.8 0 000 15.6z" fill="url(#coin-b96_svg__paint0_linear)"/><path d="M34.5 60.2a9.4 9.4 0 100-18.8 9.4 9.4 0 100 18.8z" fill="url(#coin-b96_svg__paint1_linear)"/><path d="M74.9 73.1a8.1 8.1 0 100-16.2 8.1 8.1 0 000 16.2z" fill="url(#coin-b96_svg__paint2_linear)"/><path d="M55.9 32.5a3.7 3.7 0 100-7.4 3.7 3.7 0 000 7.4z" fill="url(#coin-b96_svg__paint3_linear)"/><path d="M87.8 79.2a3.7 3.7 0 100-7.4 3.7 3.7 0 000 7.4z" fill="url(#coin-b96_svg__paint4_linear)"/><path d="M32.1 87.2a3.7 3.7 0 100-7.4 3.7 3.7 0 000 7.4z" fill="url(#coin-b96_svg__paint5_linear)"/><path d="M56.2 92.6a8.6 8.6 0 100-17.2 8.6 8.6 0 000 17.2z" fill="url(#coin-b96_svg__paint6_linear)"/><path d="M35.8 35.8h-2.5v-2.5h2.5v2.5zm0-5.6h-2.5v-2.5h2.5v2.5zm0-5.6h-2.5v-2.5h2.5v2.5zm0-5.6h-2.5v-2.5h2.5V19zm49.5 19.5h-2.5V36h2.5v2.5zm0-5.6h-2.5v-2.5h2.5v2.5zm0-5.7h-2.5v-2.5h2.5v2.5zm0-5.6h-2.5v-2.5h2.5v2.5zm-18 28l-1.8 1.8-1.8-1.8 1.8-1.8 1.8 1.8zM8.5 51.7l-1.8 1.8-1.8-1.8 1.8-1.8 1.8 1.8zm31.7 19.4l-1.8 1.8-1.8-1.8 1.8-1.8 1.8 1.8zM18.1 6.5l-1.8 1.8-1.8-1.8 1.8-1.8 1.8 1.8zm58.5 77l-1.8 1.8-1.8-1.8 1.8-1.8 1.8 1.8zm11-29.3L85.8 56 84 54.2l1.8-1.8 1.8 1.8zM57.5 71.1H55v-2.5h2.5v2.5zm0-5.6H55V63h2.5v2.5zm-41.2-6.9h-2.5v-2.5h2.5v2.5zm0-5.6h-2.5v-2.5h2.5V53zm0-5.7h-2.5v-2.5h2.5v2.5zm0-5.6h-2.5v-2.5h2.5v2.5zm0-5.6h-2.5v-2.5h2.5v2.5zM23 21h-2.5v20.7H23V21zM57.5 6.5H55v9.1h2.5V6.5zm18.6 24.3h-2.5v22.4h2.5V30.8z" fill="currentColor"/></g><defs><linearGradient id="coin-b96_svg__paint0_linear" x1="13.52" y1="76.895" x2="24.571" y2="65.845" gradientUnits="userSpaceOnUse"><stop stop-color="#F0B90B"/><stop offset=".28" stop-color="#F1BC0F"/><stop offset=".569" stop-color="#F4C41C"/><stop offset=".862" stop-color="#F8D230"/><stop offset=".993" stop-color="#FBDA3C"/></linearGradient><linearGradient id="coin-b96_svg__paint1_linear" x1="27.899" y1="57.457" x2="41.185" y2="44.17" gradientUnits="userSpaceOnUse"><stop stop-color="#F0B90B"/><stop offset=".28" stop-color="#F1BC0F"/><stop offset=".569" stop-color="#F4C41C"/><stop offset=".862" stop-color="#F8D230"/><stop offset=".993" stop-color="#FBDA3C"/></linearGradient><linearGradient id="coin-b96_svg__paint2_linear" x1="80.581" y1="59.283" x2="69.182" y2="70.682" gradientUnits="userSpaceOnUse"><stop offset=".007" stop-color="#FBDA3C"/><stop offset=".138" stop-color="#F8D230"/><stop offset=".431" stop-color="#F4C41C"/><stop offset=".721" stop-color="#F1BC0F"/><stop offset="1" stop-color="#F0B90B"/></linearGradient><linearGradient id="coin-b96_svg__paint3_linear" x1="53.303" y1="31.431" x2="58.555" y2="26.178" gradientUnits="userSpaceOnUse"><stop stop-color="#F0B90B"/><stop offset=".28" stop-color="#F1BC0F"/><stop offset=".569" stop-color="#F4C41C"/><stop offset=".862" stop-color="#F8D230"/><stop offset=".993" stop-color="#FBDA3C"/></linearGradient><linearGradient id="coin-b96_svg__paint4_linear" x1="85.162" y1="78.078" x2="90.415" y2="72.825" gradientUnits="userSpaceOnUse"><stop stop-color="#F0B90B"/><stop offset=".28" stop-color="#F1BC0F"/><stop offset=".569" stop-color="#F4C41C"/><stop offset=".862" stop-color="#F8D230"/><stop offset=".993" stop-color="#FBDA3C"/></linearGradient><linearGradient id="coin-b96_svg__paint5_linear" x1="29.451" y1="86.091" x2="34.704" y2="80.838" gradientUnits="userSpaceOnUse"><stop stop-color="#F0B90B"/><stop offset=".28" stop-color="#F1BC0F"/><stop offset=".569" stop-color="#F4C41C"/><stop offset=".862" stop-color="#F8D230"/><stop offset=".993" stop-color="#FBDA3C"/></linearGradient><linearGradient id="coin-b96_svg__paint6_linear" x1="62.252" y1="77.957" x2="50.155" y2="90.055" gradientUnits="userSpaceOnUse"><stop offset=".007" stop-color="#FBDA3C"/><stop offset=".138" stop-color="#F8D230"/><stop offset=".431" stop-color="#F4C41C"/><stop offset=".721" stop-color="#F1BC0F"/><stop offset="1" stop-color="#F0B90B"/></linearGradient><clipPath id="coin-b96_svg__clip0"><path fill="#fff" d="M0 0h96v96H0z"/></clipPath></defs></svg>