<svg xmlns="http://www.w3.org/2000/svg" viewBox="0 0 96 96" fill="none" class="css-kjos95"><g clip-path="url(#get-earnings-b96_svg__clip0)"><path d="M48 75.3c15.078 0 27.3-12.223 27.3-27.3S63.078 20.7 48 20.7c-15.077 0-27.3 12.223-27.3 27.3S32.923 75.3 48 75.3z" fill="url(#get-earnings-b96_svg__paint0_linear)"/><path d="M80.2 80.2c-8.6 8.6-20 13.3-32.2 13.3-12.1 0-23.6-4.7-32.2-13.3l1.8-1.8C25.7 86.5 36.5 91 48 91s22.3-4.5 30.4-12.6c16.8-16.8 16.8-44.1 0-60.8C70.3 9.5 59.5 5 48 5S25.7 9.5 17.6 17.6l-4.3 4.3h9.9v2.5H9V10.2h2.5v9.9l4.3-4.3C24.4 7.2 35.8 2.5 48 2.5c12.2 0 23.6 4.7 32.2 13.3 17.7 17.8 17.7 46.6 0 64.4z" fill="currentColor"/><path d="M48 67.3h-1.2l.1-2.5h2.3l.2 2.5H48zm-4.3-.5c-.9-.2-1.7-.4-2.5-.8l.9-2.3c.7.3 1.4.5 2.2.7l-.6 2.4zm8.9 0l-.6-2.5c.7-.2 1.5-.4 2.2-.7l.9 2.3c-.8.4-1.7.7-2.5.9zm-14.2-2.1c-.8-.4-1.5-.9-2.2-1.5l1.5-2c.6.5 1.2.9 1.9 1.3l-1.2 2.2zm19.5-.1l-1.3-2.1c.7-.4 1.3-.8 1.9-1.3l1.6 2c-.7.4-1.5.9-2.2 1.4zm-24-3.5c-.6-.6-1.1-1.3-1.7-2l2-1.4c.4.6.9 1.2 1.4 1.8l-1.7 1.6zm28.4-.2l-1.9-1.7c.5-.6 1-1.2 1.4-1.8l2.1 1.4c-.4.8-1 1.5-1.6 2.1zm-31.7-4.5c-.4-.8-.7-1.6-1-2.4l2.4-.8c.2.7.5 1.4.9 2.1l-2.3 1.1zm34.9-.3L63.2 55c.3-.7.6-1.4.8-2.1l2.4.7c-.2.9-.5 1.7-.9 2.5zm-36.6-5.2c-.1-.9-.2-1.7-.2-2.6h2.5c0 .8.1 1.5.2 2.3l-2.5.3zm38.2-.3l-2.5-.3c.1-.7.2-1.5.2-2.3l2.5-.1v.1c0 .9-.1 1.8-.2 2.6zm-35.7-5.1l-2.5-.4c.1-.9.3-1.7.6-2.6l2.4.7c-.2.8-.4 1.6-.5 2.3zm33.2-.3c-.1-.7-.3-1.5-.5-2.2l2.4-.7c.3.8.5 1.7.6 2.6l-2.5.3zm-31.8-4.5l-2.3-1.1c.4-.8.8-1.6 1.3-2.3l2.1 1.4c-.3.7-.7 1.4-1.1 2zm30.2-.3c-.3-.7-.7-1.3-1.2-2l2.1-1.4c.5.7.9 1.5 1.3 2.3L63 40.4zm-27.3-3.8l-1.8-1.7c.6-.6 1.2-1.2 1.9-1.8l1.6 1.9c-.7.5-1.2 1-1.7 1.6zm24.4-.2c-.5-.5-1.1-1.1-1.7-1.5l1.6-2c.7.5 1.3 1.1 1.9 1.8l-1.8 1.7zm-20.5-2.9l-1.3-2.2c.8-.4 1.5-.8 2.4-1.2l1 2.3c-.8.3-1.5.7-2.1 1.1zm16.6-.2c-.7-.4-1.4-.7-2.1-1L55 30c.8.3 1.6.7 2.4 1.1l-1.2 2.2zm-12-1.7l-.6-2.4c.8-.2 1.7-.3 2.6-.4l.2 2.5c-.7 0-1.5.2-2.2.3zm7.3 0c-.7-.2-1.5-.3-2.3-.3l.2-2.5c.9.1 1.7.2 2.6.4l-.5 2.4z" fill="currentColor"/></g><defs><linearGradient id="get-earnings-b96_svg__paint0_linear" x1="28.676" y1="67.324" x2="67.325" y2="28.676" gradientUnits="userSpaceOnUse"><stop stop-color="#F0B90B"/><stop offset=".28" stop-color="#F1BC0F"/><stop offset=".569" stop-color="#F4C41C"/><stop offset=".862" stop-color="#F8D230"/><stop offset=".993" stop-color="#FBDA3C"/></linearGradient><clipPath id="get-earnings-b96_svg__clip0"><path fill="#fff" d="M0 0h96v96H0z"/></clipPath></defs></svg>