<svg xmlns="http://www.w3.org/2000/svg" viewBox="0 0 96 96" fill="none" class="css-kjos95"><g clip-path="url(#send-coin-b96_svg__clip0)"><path d="M20.3 48v1.2H2.5v-2.5h17.9c0 .5-.1.9-.1 1.3zm74.2 0l-9.1 9.1-1.8-1.8 6.1-6.1H75.6v-2.4h14.1l-6.1-6.1 1.8-1.8 9.1 9.1zM23.3 33.6h-7.8v-2.5h7.8v2.5zM87 25.8h-2.5v-2.5H87v2.5zm-5.5 0H79v-2.5h2.5v2.5zM39.6 18h-2.5v-2.5h2.5V18zm-5.4 0h-2.5v-2.5h2.5V18zm-5.4 0h-2.5v-2.5h2.5V18zm-5.4 0h-2.5v-2.5h2.5V18zM18 18h-2.5v-2.5H18V18zm4.1 39.6H11.4v2.5h11.7c-.3-.8-.7-1.6-1-2.5zM70.4 78h-2.5v2.5h2.5V78zm-5.5 0h-2.5v2.5h2.5V78zm-5.5 0h-2.5v2.5h2.5V78zm-5.5 2.5h-2.5V78h2.5v2.5zM23.5 69.7H21v2.5h2.5v-2.5z" fill="#1F2834"/><path d="M48 72.7c13.641 0 24.7-11.059 24.7-24.7S61.64 23.3 48 23.3c-13.642 0-24.7 11.059-24.7 24.7 0 13.642 11.058 24.7 24.7 24.7z" fill="url(#send-coin-b96_svg__paint0_linear)"/><path d="M47 60.1v-2.4c-1.4-.1-2.6-.5-3.6-1-1-.6-1.8-1.3-2.5-2.1l2.1-1.9c.6.7 1.2 1.3 1.9 1.7.7.4 1.5.7 2.4.8v-6.3c-2-.4-3.5-1.1-4.4-2-.9-.9-1.3-2-1.3-3.4 0-1.5.5-2.7 1.5-3.6 1-.9 2.3-1.4 4.1-1.6v-2.4h2.4v2.4c1.2.1 2.2.4 3.1.9.9.5 1.7 1.2 2.3 2l-2.1 1.7c-.4-.5-.9-1-1.5-1.4-.6-.4-1.3-.6-2.1-.7v5.8c1.1.2 2 .5 2.8.9.7.3 1.3.7 1.8 1.1.5.4.8.9 1 1.5.2.6.3 1.2.3 1.9 0 1.5-.5 2.8-1.5 3.8s-2.4 1.6-4.2 1.9v2.5H47v-.1zm-2.6-16.7c0 .8.2 1.4.7 1.8.5.4 1.2.7 2.1 1v-5.3c-.9.1-1.6.4-2.1.8-.4.4-.7.9-.7 1.7zm7.8 8.8c0-.7-.2-1.3-.6-1.8-.4-.5-1.2-.8-2.3-1.1v5.9c.9-.1 1.6-.5 2.1-1 .5-.6.8-1.2.8-2zm15-34.2h-2.5v-2.5h2.5V18z" fill="#1F2834"/></g><defs><linearGradient id="send-coin-b96_svg__paint0_linear" x1="30.566" y1="65.437" x2="65.438" y2="30.565" gradientUnits="userSpaceOnUse"><stop stop-color="#F0B90B"/><stop offset=".28" stop-color="#F1BC0F"/><stop offset=".569" stop-color="#F4C41C"/><stop offset=".862" stop-color="#F8D230"/><stop offset=".993" stop-color="#FBDA3C"/></linearGradient><clipPath id="send-coin-b96_svg__clip0"><path fill="#fff" d="M0 0h96v96H0z"/></clipPath></defs></svg>